<svg width="16" height="19" viewBox="0 0 16 19" fill="none" xmlns="http://www.w3.org/2000/svg">
<path d="M4.09525 4.34693L4.74604 5.10618L4.09525 4.34693ZM11.9047 4.34693L11.254 5.10618V5.10618L11.9047 4.34693ZM12.9047 5.20407L13.5555 4.44481V4.44481L12.9047 5.20407ZM3.09525 5.20407L2.44446 4.44481H2.44446L3.09525 5.20407ZM14 9.75961V14H16V9.75961H14ZM11 17H5V19H11V17ZM2 14V9.75961H0V14H2ZM3.74604 5.96333L4.74604 5.10618L3.44446 3.58767L2.44446 4.44481L3.74604 5.96333ZM11.254 5.10618L12.254 5.96333L13.5555 4.44481L12.5555 3.58767L11.254 5.10618ZM4.74604 5.10618C5.69734 4.29078 6.34128 3.74126 6.88132 3.38459C7.39795 3.04337 7.7154 2.95123 8 2.95123V0.951233C7.17483 0.951233 6.47156 1.25838 5.7791 1.71572C5.11003 2.15762 4.35648 2.80594 3.44446 3.58767L4.74604 5.10618ZM12.5555 3.58767C11.6435 2.80594 10.89 2.15762 10.2209 1.71572C9.52844 1.25838 8.82517 0.951233 8 0.951233V2.95123C8.2846 2.95123 8.60205 3.04337 9.11868 3.38459C9.65872 3.74126 10.3027 4.29078 11.254 5.10618L12.5555 3.58767ZM5 17C4.02892 17 3.40121 16.9979 2.9387 16.9357C2.50496 16.8774 2.36902 16.7832 2.29289 16.7071L0.87868 18.1213C1.38834 18.631 2.01669 18.8297 2.67221 18.9179C3.29896 19.0021 4.08546 19 5 19V17ZM0 14C0 14.9145 -0.00212371 15.701 0.0821405 16.3278C0.170272 16.9833 0.369017 17.6117 0.87868 18.1213L2.29289 16.7071C2.21677 16.631 2.12262 16.495 2.06431 16.0613C2.00212 15.5988 2 14.9711 2 14H0ZM14 14C14 14.9711 13.9979 15.5988 13.9357 16.0613C13.8774 16.495 13.7832 16.631 13.7071 16.7071L15.1213 18.1213C15.631 17.6117 15.8297 16.9833 15.9179 16.3278C16.0021 15.701 16 14.9145 16 14H14ZM11 19C11.9145 19 12.701 19.0021 13.3278 18.9179C13.9833 18.8297 14.6117 18.631 15.1213 18.1213L13.7071 16.7071C13.631 16.7832 13.495 16.8774 13.0613 16.9357C12.5988 16.9979 11.9711 17 11 17V19ZM16 9.75961C16 8.49337 16.0214 7.55053 15.6341 6.70838L13.817 7.54409C13.9786 7.89542 14 8.31034 14 9.75961H16ZM12.254 5.96333C13.3543 6.9065 13.6554 7.19277 13.817 7.54409L15.6341 6.70838C15.2467 5.86622 14.5169 5.26887 13.5555 4.44481L12.254 5.96333ZM2 9.75961C2 8.31034 2.02139 7.89542 2.18297 7.54409L0.365948 6.70838C-0.0213877 7.55053 0 8.49337 0 9.75961H2ZM2.44446 4.44481C1.48306 5.26887 0.753284 5.86622 0.365948 6.70838L2.18297 7.54409C2.34456 7.19277 2.64567 6.9065 3.74604 5.96333L2.44446 4.44481Z" fill="#182C4D"/>
</svg>
