<svg width="376" height="117" viewBox="0 0 376 117" fill="none" xmlns="http://www.w3.org/2000/svg">
<path d="M14.0365 110C14.0365 111.005 13.8665 111.936 13.5289 112.794C13.196 113.647 12.7239 114.386 12.11 115.011C11.4974 115.637 10.7596 116.125 9.8979 116.48C9.035 116.827 8.0765 117 7.02355 117C5.97533 117 5.02036 116.827 4.15865 116.48C3.29575 116.125 2.55445 115.637 1.9359 115.011C1.32208 114.386 0.84636 113.647 0.507576 112.794C0.168793 111.936 0 111.005 0 110C0 108.996 0.168793 108.068 0.507576 107.215C0.84636 106.357 1.32208 105.614 1.9359 104.99C2.55445 104.364 3.29575 103.877 4.15865 103.531C5.02036 103.177 5.97533 103 7.02355 103C7.72591 103 8.38696 103.082 9.00669 103.246C9.62523 103.404 10.1942 103.631 10.7112 103.929C11.2294 104.218 11.6922 104.575 12.1006 104.999C12.5161 105.415 12.8679 105.882 13.1547 106.401C13.4427 106.919 13.6588 107.481 13.8063 108.086C13.9598 108.693 14.0365 109.331 14.0365 110ZM11.4018 110C11.4018 109.248 11.2991 108.576 11.0949 107.982C10.8906 107.382 10.6003 106.874 10.2225 106.457C9.84597 106.04 9.3856 105.722 8.84379 105.5C8.30669 105.279 7.69994 105.169 7.02355 105.169C6.34599 105.169 5.73571 105.279 5.19271 105.5C4.6568 105.722 4.19642 106.04 3.81278 106.457C3.43623 106.874 3.14585 107.382 2.94164 107.982C2.73624 108.576 2.63471 109.248 2.63471 110C2.63471 110.752 2.73624 111.428 2.94164 112.027C3.14585 112.621 3.43623 113.126 3.81278 113.543C4.19642 113.954 4.6568 114.269 5.19271 114.49C5.73571 114.712 6.34599 114.822 7.02355 114.822C7.69994 114.822 8.30669 114.712 8.84379 114.49C9.3856 114.269 9.84597 113.954 10.2225 113.543C10.6003 113.126 10.8906 112.621 11.0949 112.027C11.2991 111.428 11.4018 110.752 11.4018 110ZM28.3433 109.669C28.8285 109.669 29.2499 109.609 29.6075 109.488C29.9723 109.369 30.2686 109.205 30.4988 108.996C30.7349 108.781 30.9107 108.529 31.0264 108.239C31.1409 107.948 31.1988 107.628 31.1988 107.282C31.1988 106.587 30.965 106.053 30.4988 105.681C30.0396 105.308 29.3337 105.122 28.3823 105.122H26.7332V109.669H28.3433ZM34.9738 116.849H32.6448C32.2045 116.849 31.8846 116.678 31.6875 116.337L28.7742 111.951C28.6656 111.787 28.5451 111.67 28.4106 111.601C28.2819 111.532 28.0907 111.497 27.8357 111.497H26.7332V116.849H24.1563V103.151H28.3823C29.3207 103.151 30.1258 103.249 30.7962 103.445C31.4726 103.635 32.0251 103.903 32.4536 104.251C32.888 104.597 33.2067 105.014 33.4121 105.5C33.6163 105.981 33.719 106.511 33.719 107.092C33.719 107.553 33.6482 107.989 33.5077 108.399C33.3731 108.81 33.1748 109.183 32.9139 109.517C32.6578 109.851 32.3391 110.145 31.9554 110.398C31.5789 110.65 31.1468 110.849 30.6617 110.994C30.8281 111.089 30.9816 111.203 31.122 111.336C31.2625 111.462 31.39 111.614 31.5057 111.791L34.9738 116.849ZM55.5593 109.981V115.523C54.8569 116.034 54.1062 116.41 53.3082 116.65C52.5162 116.883 51.6662 117 50.7597 117C49.6288 117 48.6042 116.827 47.6835 116.48C46.771 116.132 45.9884 115.648 45.3368 115.03C44.6911 114.411 44.1929 113.673 43.8424 112.813C43.4906 111.955 43.3147 111.017 43.3147 110C43.3147 108.971 43.4847 108.027 43.8223 107.168C44.1611 106.309 44.6403 105.571 45.26 104.951C45.8857 104.333 46.6435 103.853 47.53 103.512C48.4189 103.171 49.4152 103 50.52 103C51.0819 103 51.606 103.045 52.0912 103.132C52.5834 103.221 53.0367 103.344 53.4522 103.502C53.8736 103.654 54.2561 103.84 54.602 104.061C54.9466 104.281 55.263 104.525 55.5499 104.791L54.8121 105.945C54.6976 106.129 54.5477 106.243 54.3623 106.287C54.177 106.325 53.9752 106.278 53.758 106.145C53.5478 106.025 53.3365 105.904 53.1264 105.785C52.9151 105.664 52.679 105.56 52.417 105.472C52.162 105.383 51.8705 105.312 51.5447 105.254C51.2259 105.197 50.8553 105.169 50.4339 105.169C49.7504 105.169 49.1307 105.283 48.5747 105.51C48.0258 105.737 47.556 106.063 47.1664 106.485C46.7769 106.909 46.4771 107.418 46.2658 108.011C46.0557 108.604 45.9494 109.268 45.9494 110C45.9494 110.784 46.0616 111.484 46.2847 112.103C46.5148 112.716 46.8347 113.236 47.2432 113.666C47.6587 114.089 48.1568 114.414 48.7376 114.641C49.3195 114.863 49.9676 114.974 50.6829 114.974C51.1941 114.974 51.6509 114.92 52.0534 114.812C52.4548 114.705 52.8478 114.559 53.2315 114.377V111.895H51.488C51.3215 111.895 51.1905 111.85 51.0949 111.763C51.0052 111.668 50.9603 111.554 50.9603 111.421V109.981H55.5593ZM73.0509 111.677L71.3653 107.12C71.2814 106.919 71.1953 106.679 71.1056 106.401C71.017 106.122 70.9273 105.822 70.8376 105.5C70.755 105.822 70.6688 106.126 70.5791 106.41C70.4894 106.688 70.4032 106.932 70.3206 107.14L68.6432 111.677H73.0509ZM77.6015 116.849H75.6089C75.3858 116.849 75.204 116.795 75.0635 116.688C74.9219 116.574 74.8168 116.436 74.7472 116.272L73.712 113.477H67.9727L66.9386 116.272C66.8867 116.417 66.7875 116.549 66.6412 116.669C66.4948 116.789 66.3118 116.849 66.0946 116.849H64.0832L69.5344 103.151H72.1597L77.6015 116.849ZM98.5718 103.151V116.849H97.2497C97.0455 116.849 96.8732 116.817 96.7327 116.754C96.5981 116.685 96.4671 116.571 96.3396 116.413L89.1059 107.282C89.1437 107.699 89.1638 108.083 89.1638 108.438V116.849H86.8926V103.151H88.243C88.3516 103.151 88.4449 103.158 88.5216 103.171C88.6042 103.177 88.6751 103.196 88.7317 103.227C88.7967 103.252 88.8569 103.294 88.9147 103.35C88.9714 103.401 89.0363 103.47 89.1059 103.559L96.3679 112.729C96.3491 112.507 96.3337 112.29 96.3207 112.075C96.3077 111.86 96.3018 111.661 96.3018 111.478V103.151H98.5718ZM112.101 116.849H109.513V103.151H112.101V116.849ZM130.436 105.643C130.36 105.776 130.277 105.873 130.187 105.936C130.105 105.993 130 106.022 129.871 106.022C129.737 106.022 129.59 105.975 129.431 105.88C129.277 105.778 129.092 105.668 128.875 105.548C128.657 105.428 128.402 105.321 128.109 105.226C127.821 105.124 127.479 105.074 127.084 105.074C126.726 105.074 126.412 105.119 126.144 105.208C125.876 105.288 125.65 105.406 125.464 105.558C125.285 105.709 125.152 105.893 125.062 106.107C124.972 106.316 124.927 106.546 124.927 106.798C124.927 107.12 125.017 107.388 125.196 107.604C125.381 107.818 125.624 108.002 125.924 108.153C126.225 108.304 126.566 108.44 126.949 108.561C127.333 108.68 127.725 108.81 128.127 108.948C128.53 109.082 128.923 109.239 129.307 109.423C129.689 109.599 130.031 109.827 130.331 110.104C130.631 110.376 130.871 110.711 131.05 111.109C131.235 111.506 131.328 111.99 131.328 112.558C131.328 113.176 131.219 113.757 131.002 114.3C130.792 114.837 130.478 115.308 130.063 115.712C129.654 116.11 129.153 116.426 128.558 116.659C127.964 116.886 127.285 117 126.518 117C126.077 117 125.643 116.957 125.215 116.868C124.787 116.786 124.375 116.665 123.979 116.508C123.59 116.35 123.222 116.16 122.877 115.94C122.532 115.719 122.225 115.472 121.957 115.201L122.714 113.978C122.779 113.891 122.862 113.818 122.963 113.761C123.066 113.697 123.174 113.666 123.289 113.666C123.449 113.666 123.622 113.732 123.807 113.865C123.991 113.991 124.212 114.133 124.468 114.291C124.723 114.449 125.021 114.594 125.359 114.727C125.704 114.853 126.116 114.917 126.595 114.917C127.329 114.917 127.897 114.746 128.3 114.405C128.702 114.058 128.904 113.561 128.904 112.917C128.904 112.558 128.811 112.264 128.626 112.037C128.447 111.809 128.208 111.62 127.908 111.469C127.607 111.311 127.266 111.178 126.882 111.07C126.498 110.963 126.109 110.847 125.713 110.72C125.317 110.594 124.927 110.442 124.545 110.266C124.161 110.089 123.819 109.858 123.519 109.574C123.219 109.29 122.976 108.935 122.791 108.513C122.612 108.083 122.523 107.556 122.523 106.932C122.523 106.433 122.622 105.945 122.82 105.472C123.024 104.999 123.318 104.579 123.701 104.212C124.084 103.846 124.557 103.553 125.12 103.331C125.682 103.11 126.326 103 127.054 103C127.872 103 128.626 103.126 129.316 103.379C130.005 103.631 130.593 103.985 131.078 104.439L130.436 105.643ZM144.02 105.178V108.978H148.868V110.938H144.02V114.812H150.171V116.849H141.432V103.151H150.171V105.178H144.02ZM169.854 104.089C169.854 104.38 169.772 104.644 169.605 104.886L162.496 114.812H169.692V116.849H159.151V115.845C159.151 115.719 159.174 115.598 159.219 115.485C159.264 115.365 159.321 115.254 159.391 115.153L166.52 105.178H159.602V103.151H169.854V104.089ZM203.447 103.151L197.852 116.849H195.522L189.925 103.151H191.996C192.221 103.151 192.402 103.205 192.543 103.313C192.685 103.419 192.789 103.559 192.857 103.73L196.127 112.085C196.233 112.355 196.337 112.656 196.433 112.984C196.537 113.306 196.632 113.643 196.721 113.997C196.798 113.643 196.882 113.306 196.97 112.984C197.057 112.656 197.158 112.355 197.265 112.085L200.515 103.73C200.564 103.584 200.665 103.451 200.81 103.331C200.963 103.212 201.151 103.151 201.366 103.151H203.447ZM225.499 110C225.499 111.005 225.33 111.936 224.992 112.794C224.659 113.647 224.188 114.386 223.575 115.011C222.962 115.637 222.222 116.125 221.36 116.48C220.497 116.827 219.539 117 218.486 117C217.439 117 216.485 116.827 215.622 116.48C214.76 116.125 214.017 115.637 213.399 115.011C212.787 114.386 212.311 113.647 211.97 112.794C211.633 111.936 211.465 111.005 211.465 110C211.465 108.996 211.633 108.068 211.97 107.215C212.311 106.357 212.787 105.614 213.399 104.99C214.017 104.364 214.76 103.877 215.622 103.531C216.485 103.177 217.439 103 218.486 103C219.19 103 219.849 103.082 220.47 103.246C221.087 103.404 221.659 103.631 222.176 103.929C222.693 104.218 223.157 104.575 223.563 104.999C223.981 105.415 224.33 105.882 224.617 106.401C224.905 106.919 225.123 107.481 225.269 108.086C225.422 108.693 225.499 109.331 225.499 110ZM222.866 110C222.866 109.248 222.762 108.576 222.559 107.982C222.352 107.382 222.065 106.874 221.686 106.457C221.309 106.04 220.85 105.722 220.306 105.5C219.769 105.279 219.163 105.169 218.486 105.169C217.811 105.169 217.198 105.279 216.657 105.5C216.12 105.722 215.661 106.04 215.277 106.457C214.898 106.874 214.61 107.382 214.404 107.982C214.201 108.576 214.097 109.248 214.097 110C214.097 110.752 214.201 111.428 214.404 112.027C214.61 112.621 214.898 113.126 215.277 113.543C215.661 113.954 216.12 114.269 216.657 114.49C217.198 114.712 217.811 114.822 218.486 114.822C219.163 114.822 219.769 114.712 220.306 114.49C220.85 114.269 221.309 113.954 221.686 113.543C222.065 113.126 222.352 112.621 222.559 112.027C222.762 111.428 222.866 110.752 222.866 110ZM242.997 105.643C242.921 105.776 242.837 105.873 242.748 105.936C242.665 105.993 242.561 106.022 242.431 106.022C242.296 106.022 242.151 105.975 241.989 105.88C241.837 105.778 241.653 105.668 241.435 105.548C241.22 105.428 240.962 105.321 240.667 105.226C240.38 105.124 240.039 105.074 239.644 105.074C239.287 105.074 238.973 105.119 238.705 105.208C238.437 105.288 238.211 105.406 238.023 105.558C237.847 105.709 237.713 105.893 237.621 106.107C237.532 106.316 237.487 106.546 237.487 106.798C237.487 107.12 237.578 107.388 237.755 107.604C237.943 107.818 238.184 108.002 238.483 108.153C238.786 108.304 239.127 108.44 239.51 108.561C239.893 108.68 240.285 108.81 240.687 108.948C241.089 109.082 241.484 109.239 241.867 109.423C242.25 109.599 242.591 109.827 242.89 110.104C243.193 110.376 243.431 110.711 243.611 111.109C243.795 111.506 243.886 111.99 243.886 112.558C243.886 113.176 243.78 113.757 243.562 114.3C243.35 114.837 243.04 115.308 242.622 115.712C242.216 116.11 241.714 116.426 241.119 116.659C240.526 116.886 239.843 117 239.077 117C238.637 117 238.204 116.957 237.774 116.868C237.349 116.786 236.935 116.665 236.54 116.508C236.149 116.35 235.781 116.16 235.437 115.94C235.091 115.719 234.785 115.472 234.516 115.201L235.275 113.978C235.34 113.891 235.421 113.818 235.524 113.761C235.628 113.697 235.735 113.666 235.85 113.666C236.012 113.666 236.184 113.732 236.368 113.865C236.551 113.991 236.774 114.133 237.027 114.291C237.283 114.449 237.583 114.594 237.919 114.727C238.265 114.853 238.675 114.917 239.154 114.917C239.889 114.917 240.457 114.746 240.86 114.405C241.262 114.058 241.465 113.561 241.465 112.917C241.465 112.558 241.373 112.264 241.185 112.037C241.008 111.809 240.768 111.62 240.468 111.469C240.169 111.311 239.824 111.178 239.441 111.07C239.058 110.963 238.671 110.847 238.272 110.72C237.878 110.594 237.487 110.442 237.104 110.266C236.72 110.089 236.379 109.858 236.08 109.574C235.781 109.29 235.536 108.935 235.352 108.513C235.172 108.083 235.084 107.556 235.084 106.932C235.084 106.433 235.183 105.945 235.379 105.472C235.585 104.999 235.877 104.579 236.261 104.212C236.643 103.846 237.119 103.553 237.678 103.331C238.241 103.11 238.886 103 239.613 103C240.434 103 241.185 103.126 241.875 103.379C242.564 103.631 243.154 103.985 243.637 104.439L242.997 105.643ZM275.608 105.245H271.43V116.849H268.851V105.245H264.674V103.151H275.608V105.245ZM287.864 105.178V108.978H292.712V110.938H287.864V114.812H294.016V116.849H285.278V103.151H294.016V105.178H287.864ZM315.833 103.151V116.849H314.511C314.308 116.849 314.136 116.817 313.994 116.754C313.86 116.685 313.73 116.571 313.604 116.413L306.368 107.282C306.405 107.699 306.425 108.083 306.425 108.438V116.849H304.157V103.151H305.505C305.612 103.151 305.708 103.158 305.784 103.171C305.866 103.177 305.938 103.196 305.996 103.227C306.057 103.252 306.119 103.294 306.176 103.35C306.233 103.401 306.298 103.47 306.368 103.559L313.63 112.729C313.611 112.507 313.595 112.29 313.584 112.075C313.568 111.86 313.565 111.661 313.565 111.478V103.151H315.833ZM332.351 114.794C332.849 114.794 333.294 114.712 333.685 114.548C334.081 114.382 334.413 114.152 334.681 113.855C334.951 113.558 335.154 113.198 335.295 112.776C335.44 112.353 335.514 111.879 335.514 111.355V103.151H338.093V111.355C338.093 112.169 337.958 112.924 337.69 113.619C337.426 114.306 337.046 114.904 336.548 115.41C336.058 115.907 335.456 116.3 334.747 116.584C334.038 116.862 333.241 117 332.351 117C331.459 117 330.657 116.862 329.949 116.584C329.24 116.3 328.634 115.907 328.136 115.41C327.645 114.904 327.266 114.306 326.998 113.619C326.734 112.924 326.603 112.169 326.603 111.355V103.151H329.182V111.346C329.182 111.869 329.251 112.343 329.393 112.766C329.538 113.189 329.746 113.552 330.014 113.855C330.29 114.152 330.62 114.382 331.01 114.548C331.405 114.712 331.853 114.794 332.351 114.794ZM351.441 105.178V108.978H356.289V110.938H351.441V114.812H357.592V116.849H348.854V103.151H357.592V105.178H351.441ZM375.11 105.643C375.033 105.776 374.949 105.873 374.861 105.936C374.777 105.993 374.673 106.022 374.543 106.022C374.409 106.022 374.264 105.975 374.103 105.88C373.95 105.778 373.765 105.668 373.547 105.548C373.332 105.428 373.075 105.321 372.78 105.226C372.493 105.124 372.152 105.074 371.758 105.074C371.401 105.074 371.086 105.119 370.818 105.208C370.55 105.288 370.323 105.406 370.136 105.558C369.96 105.709 369.825 105.893 369.733 106.107C369.646 106.316 369.6 106.546 369.6 106.798C369.6 107.12 369.692 107.388 369.868 107.604C370.055 107.818 370.297 108.002 370.596 108.153C370.898 108.304 371.239 108.44 371.623 108.561C372.007 108.68 372.397 108.81 372.8 108.948C373.202 109.082 373.597 109.239 373.98 109.423C374.363 109.599 374.704 109.827 375.003 110.104C375.306 110.376 375.543 110.711 375.724 111.109C375.908 111.506 376 111.99 376 112.558C376 113.176 375.893 113.757 375.674 114.3C375.463 114.837 375.152 115.308 374.735 115.712C374.328 116.11 373.827 116.426 373.233 116.659C372.638 116.886 371.956 117 371.19 117C370.749 117 370.316 116.957 369.887 116.868C369.462 116.786 369.047 116.665 368.653 116.508C368.262 116.35 367.894 116.16 367.549 115.94C367.203 115.719 366.898 115.472 366.629 115.201L367.388 113.978C367.454 113.891 367.534 113.818 367.637 113.761C367.741 113.697 367.848 113.666 367.962 113.666C368.124 113.666 368.296 113.732 368.481 113.865C368.664 113.991 368.887 114.133 369.139 114.291C369.397 114.449 369.695 114.594 370.033 114.727C370.378 114.853 370.787 114.917 371.266 114.917C372.002 114.917 372.57 114.746 372.972 114.405C373.375 114.058 373.578 113.561 373.578 112.917C373.578 112.558 373.486 112.264 373.298 112.037C373.121 111.809 372.88 111.62 372.581 111.469C372.282 111.311 371.937 111.178 371.553 111.07C371.171 110.963 370.784 110.847 370.385 110.72C369.99 110.594 369.6 110.442 369.216 110.266C368.832 110.089 368.491 109.858 368.193 109.574C367.894 109.29 367.648 108.935 367.464 108.513C367.285 108.083 367.196 107.556 367.196 106.932C367.196 106.433 367.296 105.945 367.491 105.472C367.698 104.999 367.99 104.579 368.373 104.212C368.756 103.846 369.231 103.553 369.791 103.331C370.354 103.11 370.998 103 371.727 103C372.546 103 373.298 103.126 373.987 103.379C374.678 103.631 375.267 103.985 375.751 104.439L375.11 105.643Z" fill="black"/>
<path d="M67.9734 7.7638V83.2452H53.9758V50.896H14.9977V83.2452H1V7.7638H14.9977V38.9268H53.9758V7.7638H67.9734ZM140.93 54.7779C140.93 55.7125 140.859 57.0424 140.715 58.7676H95.5996C96.39 63.0089 98.4358 66.3877 101.737 68.9037C105.112 71.3479 109.274 72.57 114.227 72.57C120.545 72.57 125.748 70.4853 129.84 66.3158L137.054 74.6187C134.47 77.7099 131.204 80.0458 127.256 81.6277C123.309 83.2096 118.857 84 113.904 84C107.588 84 102.025 82.7416 97.2147 80.2259C92.406 77.7099 88.6729 74.2233 86.0166 69.7664C83.4324 65.2375 82.1403 60.1335 82.1403 54.4544C82.1403 48.8472 83.3969 43.8151 85.9089 39.3581C88.4931 34.8293 92.0463 31.3068 96.5686 28.7908C101.091 26.2747 106.188 25.0167 111.858 25.0167C117.457 25.0167 122.447 26.2747 126.825 28.7908C131.276 31.235 134.722 34.7214 137.162 39.2503C139.675 43.7073 140.93 48.8831 140.93 54.7779ZM111.858 35.7997C107.551 35.7997 103.891 37.0937 100.876 39.6816C97.9329 42.1976 96.1379 45.5764 95.4919 49.8177H128.117C127.543 45.6482 125.785 42.2696 122.841 39.6816C119.898 37.0937 116.238 35.7997 111.858 35.7997ZM153.86 25.6637H167.319V83.2452H153.86V25.6637ZM160.643 16.1746C158.202 16.1746 156.156 15.4198 154.506 13.9101C152.854 12.3286 152.029 10.3876 152.029 8.08729C152.029 5.78695 152.854 3.8819 154.506 2.37227C156.156 0.790717 158.202 0 160.643 0C163.083 0 165.129 0.754813 166.781 2.26444C168.431 3.70214 169.257 5.53526 169.257 7.7638C169.257 10.1361 168.431 12.1489 166.781 13.8023C165.201 15.3839 163.155 16.1746 160.643 16.1746ZM208.456 58.552L198.443 68.0411V83.2452H184.983V3.23492H198.443V51.543L226.33 25.6637H242.482L218.47 49.8177L244.743 83.2452H228.376L208.456 58.552ZM276.91 58.552L266.896 68.0411V83.2452H253.437V3.23492H266.896V51.543L294.784 25.6637H310.935L286.924 49.8177L313.196 83.2452H296.83L276.91 58.552ZM345.313 84C339.498 84 334.259 82.7416 329.592 80.2259C324.927 77.7099 321.266 74.2233 318.61 69.7664C316.025 65.2375 314.733 60.1335 314.733 54.4544C314.733 48.7753 316.025 43.7073 318.61 39.2503C321.266 34.7934 324.927 31.3068 329.592 28.7908C334.259 26.2747 339.498 25.0167 345.313 25.0167C351.199 25.0167 356.475 26.2747 361.141 28.7908C365.808 31.3068 369.432 34.7934 372.016 39.2503C374.672 43.7073 376 48.7753 376 54.4544C376 60.1335 374.672 65.2375 372.016 69.7664C369.432 74.2233 365.808 77.7099 361.141 80.2259C356.475 82.7416 351.199 84 345.313 84ZM345.313 72.4621C350.266 72.4621 354.357 70.8088 357.588 67.5019C360.818 64.1951 362.433 59.846 362.433 54.4544C362.433 49.0629 360.818 44.7138 357.588 41.4069C354.357 38.1001 350.266 36.4467 345.313 36.4467C340.36 36.4467 336.268 38.1001 333.038 41.4069C329.88 44.7138 328.3 49.0629 328.3 54.4544C328.3 59.846 329.88 64.1951 333.038 67.5019C336.268 70.8088 340.36 72.4621 345.313 72.4621Z" fill="black"/>
</svg>
