<svg width="18" height="19" viewBox="0 0 18 19" fill="none" xmlns="http://www.w3.org/2000/svg">
<path d="M5.01003 1.53949L3.71916 0.146154C1.55266 1.92923 0.126379 4.67692 0 7.79487H1.80542C1.94082 5.21282 3.16851 2.95231 5.01003 1.53949ZM16.1946 7.79487H18C17.8646 4.67692 16.4383 1.92923 14.2808 0.146154L12.999 1.53949C14.8225 2.95231 16.0592 5.21282 16.1946 7.79487ZM14.4163 8.28205C14.4163 5.29077 12.9358 2.78667 10.3541 2.1241V1.46154C10.3541 0.652821 9.74925 0 9 0C8.25075 0 7.64594 0.652821 7.64594 1.46154V2.1241C5.05517 2.78667 3.58375 5.28103 3.58375 8.28205V13.1538L1.77834 15.1026V16.0769H16.2217V15.1026L14.4163 13.1538V8.28205ZM9 19C9.12638 19 9.24373 18.9903 9.36108 18.961C9.94784 18.8246 10.4263 18.3959 10.661 17.8113C10.7513 17.5774 10.7964 17.3241 10.7964 17.0513H7.18556C7.19458 18.1231 7.99799 19 9 19Z" fill="#101D33"/>
</svg>
